<?xml version="1.0" encoding="utf-8"?>
<!-- Generator: Adobe Illustrator 18.0.0, SVG Export Plug-In . SVG Version: 6.00 Build 0)  -->
<!DOCTYPE svg PUBLIC "-//W3C//DTD SVG 1.1//EN" "http://www.w3.org/Graphics/SVG/1.1/DTD/svg11.dtd">
<svg version="1.1" id="Layer_1" xmlns="http://www.w3.org/2000/svg" xmlns:xlink="http://www.w3.org/1999/xlink" x="0px" y="0px"
	 viewBox="525 341.5 730 95.5" enable-background="new 525 341.5 730 95.5" xml:space="preserve">
<g>
	<defs>
		<rect id="SVGID_1_" x="525" y="341.5" width="730" height="95.5"/>
	</defs>
	<clipPath id="SVGID_2_">
		<use xlink:href="#SVGID_1_"  overflow="visible"/>
	</clipPath>
	<g clip-path="url(#SVGID_2_)">
		<defs>
			<rect id="SVGID_3_" x="504" y="334.6" width="768.1" height="113.9"/>
		</defs>
		<clipPath id="SVGID_4_">
			<use xlink:href="#SVGID_3_"  overflow="visible"/>
		</clipPath>
		<g clip-path="url(#SVGID_4_)">
			<path fill="#8599A9" d="M538,414.2c0-4.2,0-8.4,0-12.6c0-1.9-0.9-4.7,2.4-4.7c3.3-0.5,3.3,1.9,3.8,4.2c1.9,7.5,4.7,14,10.4,19.6
				c9,8.4,25.5,9.3,34,2.3c9.4-7.9,6.6-21.9-5.2-26.2c-9.4-3.3-19.8-4.7-29.3-8.9c-12.3-5.1-16.5-11.2-15.1-24.8
				c0.9-9.3,5.7-15.9,14.6-19.1c11.3-3.7,22.2-2.8,32.1,4.2c2.8,1.9,3.8,1.4,5.2-0.9c0.5-0.9,1.4-2.3,2.4-3.3
				c0.5-1.9,1.9-1.4,3.3-1.4s1.4,1.4,1.4,2.8c0.5,8.4,0.9,17.3,0.9,25.7c0,1.4,0.5,3.3-1.9,3.3c-1.9,0.5-3.3-0.5-3.8-2.8
				c-0.9-2.8-1.9-5.6-3.3-7.9c-5.7-11.7-15.1-16.8-28.3-16.3c-5.7,0.5-11.3,4.2-12.8,9.3c-1.9,7-0.5,10.7,6.1,15.4
				c5.7,3.7,12.3,5.1,18.9,7c3.8,0.9,8,1.9,11.8,3.3c13.2,4.2,18.9,14.9,17,29c-1.4,11.7-10.9,20.1-24.1,21c-10.4,0.9-19.8,0-28.3-7
				c-2.4-1.9-3.3-0.9-4.3,0.9c-0.5,0.9-1.4,2.3-1.9,3.3c-0.9,1.9-2.4,2.8-4.3,2.3c-2.4-0.5-1.9-2.3-1.9-4.2
				C538.5,423.6,538.5,418.9,538,414.2L538,414.2z"/>
			<path fill="#859AA9" d="M991.9,431c-10.9,0-21.3,0-32.1,0c-1.9,0-4.3,0.9-4.3-2.3s1.9-3.3,4.3-3.3c8.5,0,9-0.5,9-8.9
				c0-19.6,0-39.2,0-58.8c0-7.5-0.9-8.9-8.5-8.9c-1.9,0-4.7,0.9-4.3-3.3c0-3.7,2.4-2.8,4.3-2.8c10.4,0,20.3,0,30.7,0
				c2.4,0,4.7-0.5,4.7,3.3s-2.4,2.8-4.3,2.8c-7.6,0-8.5,0.9-8.5,8.4c0,20.5,0,41.1,0,61.2c0,6.1,0.9,7,7.1,7
				c5.7,0,11.8,0.5,17.5-0.9s10.4-4.2,12.8-9.8c1.9-4.7,3.8-9.8,4.7-14.9c0.5-1.9,0.9-2.8,3.3-2.8c2.4,0,1.9,1.9,1.9,3.3
				c-0.5,9.3-0.9,18.2-1.4,27.6c0,2.8-1.9,2.8-4.3,2.8C1013.7,431,1002.8,431,991.9,431z"/>
			<path fill="#8599A8" d="M707.1,387.1c0-9.8,0-19.6,0-29.9c0-8.4-0.5-8.9-9-8.9c-1.4,0-3.3,0.5-3.8-0.9c-0.5-1.9-1.4-4.7,2.4-4.7
				c11.3,0,23.1,0,34.5,0c2.4,0,2.8,1.4,2.8,3.3c0,2.3-1.4,2.8-3.3,2.3c-0.9,0-1.9,0-2.8,0c-5.7,0.5-7.1,1.4-7.1,7.5
				c0,20.5,0,41.1,0,61.6c0,6.1,1.4,7.5,8,7.5c1.9,0,5.2-1.9,5.2,2.3c0,1.9,0,3.3-2.8,3.3c-11.3,0-23.1,0-34.5,0
				c-1.9,0-3.3-0.5-3.3-2.8c0-2.3,0.9-3.3,3.3-3.3c0.9,0,2.4,0,3.3,0c4.3,0,6.6-1.9,6.6-6.5C706.7,408.6,707.1,397.9,707.1,387.1z"
				/>
			<path fill="#8599A8" d="M869.1,421.2c0-3.3,0-6.1,0-9.3c0-1.4,0-2.8,1.9-2.8c1.9,0,2.8,0.5,3.3,1.9c0.9,2.3,1.9,4.7,3.3,7
				c4.3,7.9,13.2,11.7,21.7,8.9c4.3-1.4,7.1-3.7,7.6-8.4c0.5-5.1-2.8-7.5-7.1-8.4c-6.1-1.9-12.3-2.8-18.4-4.7
				c-9-3.3-12.8-9.3-10.9-19.6c0.9-7,7.6-11.7,16.1-12.1c5.2,0,9.9,0.5,14.2,2.8c1.9,0.9,2.8,0.9,4.3-0.9c0.9-1.9,2.8-2.3,4.7-1.9
				c1.9,0.5,0.9,2.3,0.9,3.7c0,4.2,0,7.9,0,12.1c0,1.4,0.5,3.3-1.9,4.2c-2.4,0.5-2.8-1.4-3.3-2.8c-1.4-2.8-2.8-5.6-4.7-7.9
				c-4.7-5.1-10.9-6.1-17-4.7c-3.3,0.5-5.7,2.8-6.1,6.1c-0.9,3.7,1.4,6.1,4.3,7.5c3.3,1.9,6.6,2.8,10.4,3.7c3.8,0.9,8,1.9,11.8,3.3
				c8.5,3.3,12.3,8.9,11.3,17.3c-0.9,9.3-7.1,15.9-15.6,16.8c-6.6,0.9-12.8,0.5-18.4-3.7c-2.4-1.9-3.8-1.4-5.2,0.9
				c-0.9,1.9-2.4,3.3-4.7,2.3c-2.4-0.9-0.9-2.8-1.4-4.2C869.1,426.4,869.1,423.6,869.1,421.2z"/>
			<path fill="#859AA9" d="M631.1,400.7c0,5.1,0,10.7,0,15.9c0,4.2,1.4,7.5,5.7,8.4c4.3,0.9,8-1.9,9.9-6.1c0.9-2.8,1.4-5.1,1.9-7.9
				c0.5-1.9,0.9-2.3,2.8-1.9c1.4,0,1.4,1.4,1.9,2.3c1.9,14-9.9,24.8-24.1,21.5c-6.1-1.4-8.5-4.7-9-11.7c-0.9-12.1-0.9-23.8-0.5-36
				c0-3.7-0.5-5.6-4.7-4.7c-1.4,0.5-3.8,0.9-4.7-1.4c-0.5-1.9-0.5-3.3,1.9-3.7c10.9-2.8,13.2-11.7,14.6-21c0-1.4-0.9-3.7,2.4-4.2
				c2.4,0,3.8,0.5,3.8,3.3c0,5.6,0,11.7,0,17.7c0,2.8,0.9,4.2,3.8,3.7c3.8,0,7.1,0,10.9,0c1.9,0,3.3,0.5,3.3,2.8
				c0,1.9-0.9,2.8-2.8,2.8c-3.8,0-7.1,0.5-10.9,0c-4.3-0.5-5.2,1.4-4.7,5.1C631.1,390.4,630.6,395.5,631.1,400.7
				C630.6,400.7,631.1,400.7,631.1,400.7z"/>
			<path fill="#859AAA" d="M1117.6,402.1c0,4.7,0.5,8.9,1.9,13.1c2.4,6.5,6.6,9.8,13.2,10.3c7.1,0.5,11.8-2.3,15.6-8.4
				c0.9-1.4,0.9-3.7,2.8-3.3c2.4,0.5,3.8,1.4,2.4,4.7c-7.1,15.9-27.4,20.1-40.1,8.4c-14.2-13.1-11.3-39.7,5.2-49.5
				c8.5-5.1,22.2-4.7,29.3,0.5c4.3,3.3,5.7,7.5,4.7,12.6c-0.5,3.3-2.8,5.6-6.1,6.1c-3.3,0.5-6.1,0-8-2.8c-1.9-2.8-1.9-6.1,0.5-8.4
				c2.8-3.3,1.4-4.7-1.9-5.6c-7.6-2.3-16.1,5.1-18.9,12.6C1116.6,396.5,1117.6,397.4,1117.6,402.1z"/>
			<path fill="#8499A9" d="M1246,383.9c0,12.1,0,23.8,0,36c0,3.7,0.9,5.6,5.2,5.6c1.9,0,3.8,0,3.8,2.8c0,3.3-1.9,2.8-4.3,2.8
				c-7.6,0-15.6,0-23.1,0c-1.9,0-3.8,0.5-3.8-2.3c0-2.8,1.4-3.3,3.8-2.8c5.2,0.5,6.6-1.9,6.6-6.5c0-21,0-42,0-63
				c0-6.5-0.5-6.5-6.6-7c-1.9,0-3.8,0.5-3.8-2.3c0-2.3,1.9-2.3,3.3-2.3c4.7-0.5,9.4-0.5,14.2-0.9c3.8-0.5,4.3,0.9,4.3,4.2
				C1245.6,359.6,1246,371.7,1246,383.9z"/>
			<path fill="#8599A8" d="M774.2,416.5c4.3-11.2,8-21,11.8-30.8c1.4-3.7-1.4-5.1-4.7-5.6c-1.9,0-3.3-0.5-3.3-2.8
				c0-2.3,1.9-2.3,3.8-2.3c6.1,0,11.8,0,17.9,0c0.9,0,2.4,0,2.4,1.4s0.5,2.8-1.4,3.3c-6.6,1.4-8,7-10.4,11.7
				c-5.2,12.6-10.4,25.2-15.6,37.8c-0.5,1.4-0.5,3.7-3.3,3.7c-2.8,0.5-3.3-1.9-3.8-3.7c-6.1-14-12.3-27.6-18.4-41.6
				c-1.9-3.7-2.8-8.4-9-8.4c-1.4,0-1.9-0.9-1.9-2.3c0-1.9,0.9-2.3,2.4-2.3c7.6,0,15.1,0,22.7,0c1.4,0,2.8,0,2.8,1.9
				s-0.5,2.8-2.4,2.8c-5.2,0-5.2,2.8-3.8,7C765.2,396,769.5,405.8,774.2,416.5z"/>
			<path fill="#869AAB" d="M679.7,425.9c0,4.2-3.8,7.5-8,7.5s-7.6-3.7-7.6-7.5c0-4.2,3.3-7.5,7.6-7.5
				C676.4,418.4,679.7,421.7,679.7,425.9z"/>
			<path fill="#8599A9" d="M1220.5,423.6c-0.9-1.4-1.9-0.9-3.3-0.5c-5.2,1.9-7.1,0.5-7.1-4.7c0-4.7,0-9.3,0-14s0.5-9.3-0.9-14.5
				c0-8.9-4.3-14-12.8-15.9c-7.1-0.9-14.2-1.4-21.3,0.9c-5.2,1.9-10.4,4.7-11.8,10.7c-1.4,3.7-0.9,7,2.8,8.9
				c2.8,1.9,6.1,1.4,8.5-0.5c2.8-2.3,2.4-6.1,0.5-8.9c-1.9-2.8-0.5-4.2,1.9-5.1c5.2-1.9,10.9-1.9,16.1,0c4.3,1.4,7.1,11.2,4.7,14.9
				c-0.9,0.9-2.4,0.5-3.3,0.9c-4.7,0.9-9.4,1.9-14.2,3.3c-6.1,1.9-12.3,4.2-17,9.3c-7.1,7.9-3.3,21,7.1,23.8c9,2.3,17,0.5,24.1-5.1
				c2.8-1.9,4.3-3.3,6.6,0.9c3.8,6.1,15.1,5.1,18.9-0.9C1221,425.9,1221.5,425,1220.5,423.6z M1185.6,426.4
				c-5.7,0.9-10.4-0.9-12.3-4.7c-1.9-5.1-0.5-11.2,4.3-14c5.7-3.7,11.8-4.7,18.4-6.1c1.9-0.5,2.8,0.9,2.4,2.3
				c0.5,1.4,0.5,2.8,0.5,4.2C1198.8,418.4,1194.1,425,1185.6,426.4z"/>
			<path fill="#8599A9" d="M858.3,415.6c-2.8-1.9-3.3,0.5-4.3,1.9c-5.2,7.5-14.2,10.7-22.2,8.4c-7.6-1.9-10.9-7.9-11.8-17.7
				c-0.5-2.8,0.5-3.7,3.3-3.7c5.2,0,10.9,0,16.5,0c3.8,0,7.6,0,11.8,0c9.4,0,9.4,0,8-9.3c-1.9-9.3-6.6-17.3-16.1-20.1
				c-9.4-2.8-19.4-2.3-27.4,5.1c-8.5,7.5-9.4,17.3-9,27.6c0.9,12.1,9,21.9,19.8,24.8c12.3,3.3,25-1.9,31.2-12.1
				C859.2,418.9,861.1,417.5,858.3,415.6z M820,393.2c1.4-10.7,6.6-15.4,15.6-14.5c7.6,0.9,13.7,12.6,10.4,18.7
				c-0.9,1.4-2.4,1.9-3.8,1.9c-2.8,0-6.1,0-9.4,0c-2.4,0-4.7,0-7.6,0C819.5,399.3,819.1,398.8,820,393.2z"/>
		</g>
	</g>
</g>
<g>
	<path fill="#8F9BA3" d="M1069.1,431.3c-17,1-29.2-12.2-29.8-27.1c-0.6-16.4,12.7-28.5,27.5-29.1c17.2-0.6,29.3,10.5,30.8,26.2
		C1099.2,416.7,1085.9,431.8,1069.1,431.3z"/>
	<path fill="#FCFDFD" d="M1068.3,429.2c-16,0-26.5-11.9-26.8-24.4c-0.4-17.6,12.9-27.9,27.8-27.5c13.9,0.4,26,11,25.8,26.4
		C1095,418.4,1083.7,429.3,1068.3,429.2z"/>
	<path fill="#D4CFCF" d="M1091.7,408.4c-0.4-19.5-9.2-29.5-28.2-27.2c-9.8,1.3-18.3,12.3-18.1,21.4c0.2,10,7.8,21,16.8,22.2
		c11.8,1.6,21.3,1.4,28.8-16c1.8,2.3,1,4.4-0.3,6.2c-5.6,7.8-12.9,13.4-22.9,12.9c-10.4-0.7-18.6-6-22.6-16.1
		c-3.7-9.3-1.7-18.1,4.9-25c6.9-7.2,15.6-9.9,25.5-6.8c10.4,3.3,16.2,10.3,17.8,21.1C1093.9,403.8,1094,403.7,1091.7,408.4z"/>
	<path fill="#8598A5" d="M1071.6,393.3c-1.6,3.6,2.7,0.9,2.7,3.1c-4.2,0.6-3.9,3.9-3.7,7.1c0.2,3.4,0.1,6.8,0.4,10
		c0.1,1.2,1.4,1.8,2.6,1.6c1.4-0.2,3-0.8,3.3-2.3c0.4-1.7,1.4-2.8,2.7-4.1c2.4,4.5-1.4,6.2-3.7,7.9c-2.4,1.8-5.2,5.5-8.4,3.6
		c-4.4-2.5-11.1-3.9-10-12.2c1.7,1.6,2.8,2.8,3.2,4.8c0.4,1.6,2.2,2.3,3.9,2.1s2.3-1.6,2.3-3.2c0-4.1-0.2-8,0.1-12.1
		c0.3-3.5-3.2-1.8-4.1-3.3c-0.8-3.1,4.9,0.6,3.1-3.4c-0.1-2.2,1.3-3.1,3.3-3.3c0.4,0.1,0.8,0.3,1.2,0.6
		C1071,391.3,1072.3,391.9,1071.6,393.3z"/>
	<path fill="#AEB5BA" d="M1071.6,393.3c-0.6-0.7-1.2-1.3-1.7-1.9c1.4-2.5-0.1-2.9-2.4-3c1,0.9,2.9,0.3,2.3,2.1
		c-1.9,0-2.4,1.9-3.8,2.8c-2.7-2.1-2.8-4.5-0.3-6.9c1.8-1.7,4.2-2,6-0.1C1073.9,388.4,1074.6,391,1071.6,393.3z"/>
	<path fill="#EEF6F9" d="M1069.8,390.5c-0.4-0.3-0.7-0.6-1.1-0.9c-1.1-1-1.8,2.5-2.8,0.3c-0.5-1.2,0.4-2,1.5-2.7
		c1.4-0.8,2.5-0.3,3.4,0.8c1.1,1.4,1.8,2.9-1,3.3C1069.9,391.1,1069.9,390.8,1069.8,390.5z"/>
</g>
</svg>
